{"title":"Baskin (HD).2015.WEBRip.RR.mp4","uid":14043625,"size":3254512297,"categoryP":"video","categoryS":"hd___movies","magnet":"?xt=urn:btih:3c2840b588d2a263b5213e8a7aa088954ea5235c&amp;dn=Baskin+%28HD%29.2015.WEBRip.RR.mp4&amp;tr=udp%3A%2F%2Ftracker.leechers-paradise.org%3A6969&amp;tr=udp%3A%2F%2Fzer0day.ch%3A1337&amp;tr=udp%3A%2F%2Fopen.demonii.com%3A1337&amp;tr=udp%3A%2F%2Ftracker.coppersurfer.tk%3A6969&amp;tr=udp%3A%2F%2Fexodus.desync.com%3A6969","seeders":3,"leechers":1,"uploader":"RadioResearch","files":1,"time":1459033779,"description":"A five-man unit of cops on night patrol get more than they bargain for when they arrive at a creepy backwater town in the middle of nowhere after a call comes over the radio for backup. Entering a derelict building, the seasoned tough guys and their rookie junior, who's still haunted by a traumatic childhood dream, do the one thing you should never do in this kind of movie: they split up. They soon realize they've stumbled into a monstrous charnel house and descend into an ever-more nightmarish netherworld where grotesque, mind-wrenching horrors await them at every turn. This is one baskin (that’s 'police raid' to you non-Turkish speakers) that isn't going to end well. But wait! Things aren't what they seem in this truly disturbing, outrageously gory, and increasingly surreal film whose unpredictable narrative slippages pull the carpet from under your feet and keep you guessing right up to the final moment. A wildly original whatsit that reconfirms Turkey as the breakout national cinema of the moment.\r\n\r\n\r\nThanks to iTunes! ;-)\r\n\r\nEnjoy, and when it is released, buy a copy and support Indie horror!  PLEASE NOTE:  Audio is Turkish, and the subs are English.\r\nRR\r\n\r\nVideo\r\nID                                       : 3\r\nFormat                                   : AVC\r\nFormat/Info                              : Advanced Video Codec\r\nFormat profile                           :   \r\nFormat settings, CABAC                   : No\r\nFormat settings, ReFrames                : 2 frames\r\nFormat settings, GOP                     : M=2, N=90\r\nCodec ID                                 : avc1\r\nCodec ID/Info                            : Advanced Video Coding\r\nDuration                                 : 1h 36mn\r\nBit rate                                 : 3 971 Kbps\r\nWidth                                    : 1 280 pixels\r\nHeight                                   : 532 pixels\r\nDisplay aspect ratio                     : 2.40:1\r\nFrame rate mode                          : Constant\r\nFrame rate                               : 24.000 fps\r\nColor space                              : YUV\r\nChroma subsampling                       : 4:2:0\r\nBit depth                                : 8 bits\r\nScan type                                : Progressive\r\nBits/(Pixel*Frame)                       : 0.243\r\nStream size                              : 2.68 GiB (89%)\r\nLanguage                                 : English\r\nEncoded date                             : UTC 2016-03-25 15:13:08\r\nTagged date                              : UTC 2016-03-25 15:14:03\r\nColor range                              : Limited\r\nColor primaries                          : BT.709\r\nTransfer characteristics                 : BT.709\r\nMatrix coefficients                      : BT.709\r\n\r\nAudio #1\r\nID                                       : 1\r\nFormat                                   : AAC\r\nFormat/Info                              : Advanced Audio Codec\r\nFormat profile                           : LC\r\nCodec ID                                 : 40\r\nDuration                                 : 1h 36mn\r\nDuration_LastFrame                       : -19ms\r\nBit rate mode                            : Variable\r\nBit rate                                 : 125 Kbps\r\nMaximum bit rate                         : 221 Kbps\r\nChannel(s)                               : 2 channels\r\nChannel positions                        : Front: L R\r\nSampling rate                            : 48.0 KHz\r\nFrame rate                               : 46.875 fps (1024 spf)\r\nCompression mode                         : Lossy\r\nStream size                              : 86.5 MiB (3%)\r\nLanguage                                 : Turkish\r\nDefault                                  : Yes\r\nAlternate group                          : 1\r\nEncoded date                             : UTC 2016-03-25 15:07:41\r\nTagged date                              : UTC 2016-03-25 15:10:58\r\nMenus                                    : 5\r\n\r\nAudio #2\r\nID                                       : 2\r\nFormat                                   : AC-3\r\nFormat/Info                              : Audio Coding 3\r\nMode extension                           : CM (complete main)\r\nFormat settings, Endianness              : Big\r\nCodec ID                                 : ac-3\r\nDuration                                 : 1h 36mn\r\nDuration_LastFrame                       : -8ms\r\nBit rate mode                            : Constant\r\nBit rate                                 : 384 Kbps\r\nChannel(s)                               : 6 channels\r\nChannel positions                        : Front: L C R, Side: L R, LFE\r\nSampling rate                            : 48.0 KHz\r\nFrame rate                               : 31.250 fps (1536 spf)\r\nBit depth                                : 16 bits\r\nCompression mode                         : Lossy\r\nStream size                              : 266 MiB (9%)\r\nLanguage                                 : Turkish\r\nDefault                                  : No\r\nAlternate group                          : 1\r\nEncoded date                             : UTC 2016-03-25 15:10:58\r\nTagged date                              : UTC 2016-03-25 15:13:08\r\n\r\nText\r\nID                                       : 4\r\nFormat                                   : Timed Text\r\nMuxing mode                              : sbtl\r\nCodec ID                                 : tx3g\r\nDuration                                 : 1h 25mn\r\nBit rate mode                            : Variable\r\nBit rate                                 : 55 bps\r\nStream size                              : 34.4 KiB (0%)\r\nLanguage                                 : English\r\nDefault                                  : Yes\r\nForced                                   : No\r\nAlternate group                          : 2\r\nEncoded date                             : UTC 2016-03-25 15:14:04\r\nTagged date                              : UTC 2016-03-25 15:14:07","torrent":{"xt":"urn:btih:3c2840b588d2a263b5213e8a7aa088954ea5235c","amp;dn":"Baskin+%28HD%29.2015.WEBRip.RR.mp4","amp;tr":["udp%3A%2F%2Ftracker.leechers-paradise.org%3A6969","udp%3A%2F%2Fzer0day.ch%3A1337","udp%3A%2F%2Fopen.demonii.com%3A1337","udp%3A%2F%2Ftracker.coppersurfer.tk%3A6969","udp%3A%2F%2Fexodus.desync.com%3A6969"],"infoHash":"3c2840b588d2a263b5213e8a7aa088954ea5235c","infoHashBuffer":{"type":"Buffer","data":[60,40,64,181,136,210,162,99,181,33,62,138,122,160,136,149,78,165,35,92]},"announce":[],"urlList":[]}}